# xmcd CD database file
#
# Track frame offsets:
#	150
#	10856
#	26466
#	40522
#	56865
#	75216
#	99814
#	121186
#	139015
#	162727
#	176791
#	193274
#	213129
#
# Disc length: 3195 seconds
#
# Revision: 0
# Processed by: cddbd v1.5.1PL0 Copyright (c) Steve Scherf et al.
# Submitted via: CDex 1.51
#
DISCID=a00c790d
DTITLE=Lonestar - Lookin Forward
DYEAR=2003
DGENRE=Country
TTITLE0=Intro (Sirius)
TTITLE1=Good blessed Texas
TTITLE2=Where The Green Grass Grows
TTITLE3=Livin on Love
TTITLE4=Two Pinas Coladas
TTITLE5=Friends in Low Place
TTITLE6=What it is
TTITLE7=Take it to the Limit
TTITLE8=Copperhead Road
TTITLE9=Much too Young ( to feel this Damn old )
TTITLE10=I just wanna Dance With You
TTITLE11=Neon Moon
TTITLE12=Seminole Wind
EXTD=YEAR: 2003
EXTT0=
EXTT1=
EXTT2=
EXTT3=
EXTT4=
EXTT5=
EXTT6=
EXTT7=
EXTT8=
EXTT9=
EXTT10=
EXTT11=
EXTT12=
PLAYORDER=
